# xmcd CD database file
#
# Track frame offsets:
#	150
#	10337
#	16397
#	20490
#	27045
#	34170
#	38792
#	42980
#	47222
#	54880
#	64317
#	74817
#	78775
#	84792
#	103787
#	109390
#	117317
#	123405
#	127897
#	134807
#	141172
#	152900
#	164797
#	171490
#	179347
#	197740
#	201480
#	228067
#	235190
#	243300
#
# Disc length: 3407 seconds
#
# Revision: 1
# Processed by: cddbd v1.5.2PL0 Copyright (c) Steve Scherf et al.
# Submitted via: CDex 1.70beta3
#
DISCID=ad0d4d1e
DTITLE=菊地成孔 - Degustation A Jazz Authentique - Bleue
DYEAR=2004
DGENRE=Jazz
TTITLE0=カヒミ・カリィのナレーションによるデギュスタシオン・コース開始の挨拶
TTITLE1=アルト・サックス、ウッド・ベース、ドラムス、ハープによる無調クールジャズ風
TTITLE2=アルト・サックス、ウッド・ベース、ドラムス、ハープによる無調クールジャズ風
TTITLE3=複数のブレイク・ビーツと電子オルガンによるヒップ・ホップ風、ソプラノ・サックス添え
TTITLE4=キューバ産テナー・サックスと複数のブレイク・ビーツとパーカッションにハイハットを効かせたロティDCPRG風
TTITLE5=電化されたウッド・ベースとテナー・サックスにSEを添えて
TTITLE6=エリザベス・テイラー(カルテット) 
TTITLE7=エリザベス・テイラー(トリオ) 
TTITLE8=ウッドベースをフューチュアしたストリングス・ダブル・カルテットによるトーン・クラスター、中南米文学風
TTITLE9=プリペアード・アコースティック・ギターとアルト・サックスによる無調ボサ・ノヴァ、ストリングス・クラウス・オガーマン・ソース
TTITLE10=カヒミ・カリィの歌唱による「色彩のサンバ」
TTITLE11=人工ヴィブラフォンとドラムセットによる硬い鉱水 
TTITLE12=ダブル・ストリングス・カルテットとテナーサックスによるFマイナーのブルーズ・トーン・クラスター仕上げ
TTITLE13=菊地成孔クインテット・ライブ・ダブのステージ実況(新宿ピットイン)による「ユー・ドント・ノー・ホワット・ラヴ・イズ」
TTITLE14=蘭(映画「10ミニッツ・オールダー」より。ルセットを変えて) 
TTITLE15=真珠(映画「10ミニッツ・オールダー」より。ルセットを変えて) 
TTITLE16=ハン・トンヒョンのナレーションによる朝鮮風赤ワイン
TTITLE17=ピアノ、ウッドベース、ドラムス、トランペット、フルート、フレンチ・ホルン、チューバ、テナー・サックス、トロンボーンによるチャールズ・ミンガス風「カズコ・マツオ」
TTITLE18=ピアノトリオに9人のブラス・セッションを乗せた無調チャールズ・ミンガス風
TTITLE19=パイオニアCD-Jの操作によるピアノ・ソロ、UAのタイトルコール添え
TTITLE20=菊地成孔の歌唱による「ザ・クリスマス・ソング」
TTITLE21=菊池成孔クインテット・ライブ・ダブのステージ実況(新宿ピットイン)による「エリザベス・テイラー」
TTITLE22=フェンダー・ローズとサンプリング・タブラによるステレオ聴覚テスト風
TTITLE23=ジャンプカットしたソプラノ・サックス・ソロ、大森百恵のタイトルコール添え
TTITLE24=UAの歌唱による「マネージャングルのジャンヌ・ダルク」 
TTITLE25=菊地成孔クインテット・ライブ・ダブのデビューステージ(六本木STB139スイートベイジル)に於けるアナウンス&アプローズ
TTITLE26=菊地成孔クインテット・ライブ・ダブによる「イズファハン」
TTITLE27=大和田俊之のアナウンスによるデギュスタシオン・コース終了の挨拶
TTITLE28=菊地成孔クインテット・ライブ・ダブによる最新実況録音(青山CAY)
TTITLE29=菊地成孔の歌唱による「ラス・メイヤー、聞いてくれ」
EXTD=YEAR: 2004
EXTT0=
EXTT1=
EXTT2=
EXTT3=
EXTT4=
EXTT5=
EXTT6=
EXTT7=
EXTT8=
EXTT9=
EXTT10=
EXTT11=
EXTT12=
EXTT13=
EXTT14=
EXTT15=
EXTT16=
EXTT17=
EXTT18=
EXTT19=
EXTT20=
EXTT21=
EXTT22=
EXTT23=
EXTT24=
EXTT25=
EXTT26=
EXTT27=
EXTT28=
EXTT29=
PLAYORDER=
